<?xml version="1.0" standalone="no"?>
<!DOCTYPE svg PUBLIC "-//W3C//DTD SVG 20010904//EN"
 "http://www.w3.org/TR/2001/REC-SVG-20010904/DTD/svg10.dtd">
<svg version="1.0" xmlns="http://www.w3.org/2000/svg"
 width="256.000000pt" height="256.000000pt" viewBox="0 0 256.000000 256.000000"
 preserveAspectRatio="xMidYMid meet">

<g transform="translate(0.000000,256.000000) scale(0.100000,-0.100000)"
fill="#000000" stroke="none">
<path d="M1740 1630 c-25 -4 -292 -45 -595 -90 -685 -101 -751 -116 -833 -185
-42 -35 -94 -138 -96 -187 0 -20 -4 -34 -8 -32 -5 3 -8 0 -8 -5 0 -6 5 -11 12
-11 6 0 8 -3 5 -7 -4 -3 -2 -12 4 -20 9 -10 15 -10 25 -2 11 9 14 8 14 -2 0
-8 6 -5 14 7 16 21 26 16 29 -14 1 -16 4 -18 18 -9 10 6 15 19 13 30 -2 11 0
16 4 13 4 -4 7 -13 7 -19 0 -21 24 -17 27 5 3 22 4 21 9 -4 4 -15 3 -25 -1
-23 -4 3 -13 -2 -19 -9 -12 -14 0 -30 24 -31 6 -1 9 -7 7 -14 -1 -7 2 -10 8
-6 5 3 19 8 31 10 16 3 19 0 14 -13 -5 -13 -3 -14 6 -5 13 13 3 37 -12 28 -15
-10 -10 2 8 16 14 12 16 12 8 0 -6 -11 -4 -13 8 -8 11 4 15 1 12 -14 -5 -26 4
-24 15 4 l9 22 0 -24 c1 -24 1 -24 17 -5 8 10 13 12 9 4 -4 -9 -1 -8 8 3 13
16 15 16 21 2 3 -9 10 -14 15 -11 5 3 14 -1 21 -9 11 -14 14 -13 24 6 12 25
36 37 36 19 0 -6 -4 -9 -9 -5 -5 3 -13 0 -17 -7 -4 -7 -4 -10 1 -6 4 4 15 2
24 -4 9 -7 13 -9 9 -4 -4 5 -2 18 4 29 10 20 11 20 24 2 13 -17 18 -12 16 15
-1 10 43 6 51 -4 4 -7 10 -6 17 4 7 11 10 11 10 2 0 -7 5 -10 10 -7 6 4 8 10
5 14 -2 5 9 7 25 6 18 -2 31 3 35 12 3 9 13 13 25 10 10 -3 20 -2 22 2 2 4 23
22 47 39 24 18 40 32 35 32 -11 1 147 79 159 80 5 0 25 7 45 16 21 9 52 22 70
30 77 33 198 78 205 76 4 -1 7 2 7 8 0 5 3 9 8 9 18 -3 33 2 28 10 -3 4 6 7
19 5 14 -1 25 2 25 7 0 5 9 9 20 9 12 0 34 7 49 15 16 8 31 11 35 8 3 -4 6 -2
6 3 0 6 10 10 23 11 103 5 96 1 113 62 8 31 19 66 25 79 18 45 12 48 -81 32z
m-1335 -439 c3 -5 0 -13 -6 -17 -7 -4 -9 -3 -5 4 3 5 0 13 -6 15 -9 4 -10 6
-1 6 6 1 14 -3 18 -8z m-153 -76 c3 0 8 -2 10 -5 2 -3 1 -4 -1 -3 -2 2 -10 -2
-18 -8 -7 -6 -13 -10 -14 -8 -7 34 -6 38 4 32 7 -4 15 -8 19 -8z m65 -27 c-3
-8 -6 -5 -6 6 -1 11 2 17 5 13 3 -3 4 -12 1 -19z m87 -40 c-3 -4 0 -8 7 -8 7
0 9 -3 6 -6 -4 -4 -13 -2 -20 4 -8 7 -16 9 -19 6 -3 -3 -8 -1 -11 3 -3 5 5 9
18 9 13 0 21 -4 19 -8z m199 -15 c-3 -7 -6 -13 -8 -13 -2 0 -5 6 -8 13 -3 8 1
14 8 14 7 0 11 -6 8 -14z"/>
<path d="M331 1066 c-9 -11 -9 -16 1 -22 7 -4 10 -4 6 1 -4 4 -3 14 3 22 6 7
9 13 6 13 -2 0 -10 -6 -16 -14z"/>
<path d="M671 1034 c0 -11 3 -14 6 -6 3 7 2 16 -1 19 -3 4 -6 -2 -5 -13z"/>
<path d="M710 1041 c0 -6 4 -13 10 -16 6 -3 7 1 4 9 -7 18 -14 21 -14 7z"/>
<path d="M750 814 c-201 -29 -393 -61 -427 -70 -130 -34 -252 -135 -295 -243
-32 -84 -30 -197 6 -278 l28 -61 436 2 436 1 42 155 c75 273 144 525 149 538
2 6 1 12 -3 11 -4 -1 -171 -25 -372 -55z"/>
</g>
</svg>
